<svg xmlns="http://www.w3.org/2000/svg" width="98.879" height="96.12" viewBox="0 0 98.879 96.12">
  <g id="XMLID_441_" transform="translate(13.005 59.963) rotate(-45)">
    <path id="XMLID_273_" d="M30.618,51.133a14.043,14.043,0,0,1-12.873-8.31A18.675,18.675,0,0,0,8.31,33.388a14.1,14.1,0,0,1,3.68-26.82,7.794,7.794,0,0,0,4.466-2.239l.092-.093c3.3-3.3,8.016-4.75,13.269-4.072A24.519,24.519,0,0,1,43.789,7.338a24.518,24.518,0,0,1,7.175,13.973c.678,5.253-.768,9.965-4.072,13.269l-.083.083a7.806,7.806,0,0,0-2.242,4.472,14.044,14.044,0,0,1-13.948,12ZM27.364,4.523a10.522,10.522,0,0,0-7.609,2.919l-.061.062a12.294,12.294,0,0,1-7.038,3.55,9.481,9.481,0,0,0-5.411,2.759,9.573,9.573,0,0,0,2.917,15.434A23.2,23.2,0,0,1,21.885,40.972a9.567,9.567,0,0,0,18.195-2.5,12.3,12.3,0,0,1,3.548-7.042l.057-.056c2.287-2.287,3.275-5.655,2.781-9.481a19.973,19.973,0,0,0-5.884-11.347c-3.938-3.938-8.856-6.022-13.219-6.022Z" transform="translate(0 0)" fill="#292929"/>
  </g>
  <g id="XMLID_481_" transform="translate(20.71 16.249) rotate(-45)">
    <path id="XMLID_270_" d="M9.359,22.979a9.286,9.286,0,0,1-6.7-2.662,9.534,9.534,0,0,1-2.584-8.03,13.9,13.9,0,0,1,4.08-8.13A13.9,13.9,0,0,1,12.287.078a9.536,9.536,0,0,1,8.03,2.584,9.535,9.535,0,0,1,2.584,8.03,13.9,13.9,0,0,1-4.08,8.129,13.9,13.9,0,0,1-8.13,4.08A11.6,11.6,0,0,1,9.359,22.979ZM13.6,4.536a6.908,6.908,0,0,0-.792.047A9.357,9.357,0,0,0,7.364,7.364a9.357,9.357,0,0,0-2.781,5.443,5.1,5.1,0,0,0,1.286,4.3,5.1,5.1,0,0,0,4.3,1.286,9.357,9.357,0,0,0,5.443-2.781A9.355,9.355,0,0,0,18.4,10.172a5.1,5.1,0,0,0-1.286-4.3A4.851,4.851,0,0,0,13.6,4.536Z" transform="translate(0 0)" fill="#34a853"/>
  </g>
  <g id="XMLID_483_" transform="translate(0 38.591) rotate(-45)">
    <path id="XMLID_267_" d="M9.359,22.979a9.286,9.286,0,0,1-6.7-2.662,9.534,9.534,0,0,1-2.584-8.03,13.9,13.9,0,0,1,4.08-8.13A13.9,13.9,0,0,1,12.287.078a9.535,9.535,0,0,1,8.03,2.584,9.535,9.535,0,0,1,2.584,8.03,13.9,13.9,0,0,1-4.08,8.129,13.9,13.9,0,0,1-8.13,4.08A11.6,11.6,0,0,1,9.359,22.979ZM13.6,4.536a6.909,6.909,0,0,0-.792.047A9.357,9.357,0,0,0,7.364,7.364a9.358,9.358,0,0,0-2.781,5.443,5.1,5.1,0,0,0,1.286,4.3,5.1,5.1,0,0,0,4.3,1.286,9.357,9.357,0,0,0,5.443-2.781A9.356,9.356,0,0,0,18.4,10.172a5.1,5.1,0,0,0-1.286-4.3A4.852,4.852,0,0,0,13.6,4.536Z" transform="translate(0 0)" fill="#4285f4"/>
  </g>
  <g id="XMLID_84_" transform="translate(46.195 16.249) rotate(-45)">
    <path id="XMLID_242_" d="M9.359,22.979a9.286,9.286,0,0,1-6.7-2.662,9.534,9.534,0,0,1-2.584-8.03,13.9,13.9,0,0,1,4.08-8.13,13.9,13.9,0,0,1,8.13-4.08,9.533,9.533,0,0,1,8.03,2.584,9.534,9.534,0,0,1,2.584,8.03,13.9,13.9,0,0,1-4.08,8.13,13.9,13.9,0,0,1-8.129,4.08A11.678,11.678,0,0,1,9.359,22.979ZM13.6,4.537a6.91,6.91,0,0,0-.792.047A9.357,9.357,0,0,0,7.364,7.364a9.357,9.357,0,0,0-2.781,5.443,5.1,5.1,0,0,0,1.286,4.3,5.1,5.1,0,0,0,4.3,1.286,9.357,9.357,0,0,0,5.443-2.781A9.355,9.355,0,0,0,18.4,10.172a5.1,5.1,0,0,0-1.286-4.3A4.851,4.851,0,0,0,13.6,4.537Z" transform="translate(0 0)" fill="#fbbc04"/>
  </g>
  <g id="XMLID_3_" transform="translate(66.381 38.591) rotate(-45)">
    <path id="XMLID_239_" d="M9.359,22.979a9.286,9.286,0,0,1-6.7-2.662,9.534,9.534,0,0,1-2.584-8.03,13.9,13.9,0,0,1,4.08-8.13,13.9,13.9,0,0,1,8.13-4.08,9.534,9.534,0,0,1,8.03,2.584,9.534,9.534,0,0,1,2.584,8.03,13.9,13.9,0,0,1-4.08,8.13,13.9,13.9,0,0,1-8.13,4.08A11.647,11.647,0,0,1,9.359,22.979ZM13.6,4.537a6.9,6.9,0,0,0-.792.047A9.357,9.357,0,0,0,7.364,7.364a9.357,9.357,0,0,0-2.781,5.443,5.1,5.1,0,0,0,1.286,4.3,5.1,5.1,0,0,0,4.3,1.286,9.358,9.358,0,0,0,5.443-2.781A9.356,9.356,0,0,0,18.4,10.172a5.1,5.1,0,0,0-1.286-4.3A4.851,4.851,0,0,0,13.6,4.537Z" transform="translate(0 0)" fill="#ea4335"/>
  </g>
</svg>
